<?xml version="1.0" standalone="no"?>
<!DOCTYPE svg PUBLIC "-//W3C//DTD SVG 20010904//EN"
 "http://www.w3.org/TR/2001/REC-SVG-20010904/DTD/svg10.dtd">
<svg version="1.0" xmlns="http://www.w3.org/2000/svg"
 width="308.000000pt" height="308.000000pt" viewBox="0 0 308.000000 308.000000"
 preserveAspectRatio="xMidYMid meet">

<g transform="translate(0.000000,308.000000) scale(0.100000,-0.100000)"
fill="#000000" stroke="none">
<path d="M2573 2338 c-18 -6 -33 -14 -33 -17 1 -3 23 -30 49 -59 l49 -54 17
30 c10 16 26 34 36 40 15 10 21 7 39 -18 17 -24 19 -33 9 -51 -10 -19 -9 -21
6 -15 15 5 16 4 5 -9 -7 -8 -10 -15 -7 -15 14 0 83 34 89 44 6 8 8 7 8 -1 0
-7 5 -13 10 -13 13 0 -15 57 -44 88 -26 29 -73 55 -86 47 -5 -3 -11 -1 -15 5
-8 13 -90 11 -132 -2z"/>
<path d="M2380 2333 c0 -5 15 -15 33 -23 17 -8 39 -28 47 -45 21 -42 20 -41
30 -26 12 21 -16 59 -61 82 -42 21 -49 23 -49 12z"/>
<path d="M2216 2291 c-3 -5 9 -11 26 -15 36 -7 78 -42 78 -65 0 -13 2 -13 17
1 21 22 6 41 -53 68 -48 22 -60 24 -68 11z"/>
<path d="M2830 2290 c0 -5 5 -10 11 -10 5 0 7 5 4 10 -3 6 -8 10 -11 10 -2 0
-4 -4 -4 -10z"/>
<path d="M2688 2253 c-30 -34 -40 -65 -33 -99 7 -42 25 -35 25 9 0 73 29 108
32 40 1 -34 2 -35 5 -8 2 17 0 41 -4 53 -9 22 -10 22 -25 5z"/>
<path d="M2540 2246 c0 -2 11 -6 25 -8 14 -3 25 -1 25 3 0 5 -11 9 -25 9 -14
0 -25 -2 -25 -4z"/>
<path d="M2076 2221 c-4 -5 8 -12 26 -16 18 -4 47 -21 65 -38 28 -26 33 -28
39 -14 3 10 1 24 -6 32 -28 34 -111 58 -124 36z"/>
<path d="M2280 2222 c0 -12 19 -26 26 -19 2 2 -2 10 -11 17 -9 8 -15 8 -15 2z"/>
<path d="M2455 2214 c-71 -9 -166 -39 -247 -76 -76 -36 -86 -43 -78 -59 9 -16
17 -14 103 26 107 51 206 75 315 76 42 0 72 3 65 5 -7 3 -10 11 -7 17 5 13
-86 19 -151 11z"/>
<path d="M2745 2149 l-79 -40 -18 23 c-13 17 -18 19 -18 8 0 -9 5 -21 12 -28
12 -12 13 -108 2 -222 -4 -37 -3 -61 2 -57 11 11 11 8 13 135 l2 107 27 -35
c15 -19 63 -79 106 -133 62 -78 76 -101 65 -108 -81 -55 -104 -63 -193 -69
l-91 -7 85 -1 c87 -2 150 16 186 52 8 9 21 19 28 23 7 5 17 26 22 47 8 35 15
41 52 54 23 7 42 18 42 24 0 5 -8 7 -18 4 -14 -5 -24 7 -46 57 -38 81 -46 106
-36 112 5 3 12 -4 15 -16 4 -11 9 -18 11 -16 10 10 -30 76 -50 81 -32 9 -48 7
-41 -4 3 -5 2 -10 -4 -10 -5 0 -11 5 -13 11 -2 6 -19 -3 -38 -19 -19 -17 -38
-29 -41 -26 -4 2 -10 0 -13 -5 -10 -15 63 -101 87 -102 18 0 19 -2 5 -7 -12
-5 -14 -12 -9 -21 5 -7 13 -11 19 -8 10 7 35 -18 45 -46 11 -29 -23 -34 -45
-6 -48 60 -138 183 -138 190 0 11 68 48 135 74 43 17 53 24 35 24 -14 1 -61
-17 -105 -40z m65 -77 c6 -28 22 -30 31 -5 4 12 1 20 -10 25 -12 5 -11 7 6 7
18 1 23 -6 29 -34 3 -20 15 -40 25 -45 10 -6 21 -27 25 -48 4 -20 12 -40 18
-44 6 -4 7 -10 3 -14 -12 -12 -25 8 -32 46 -8 45 -27 64 -66 66 -35 2 -53 17
-64 52 -6 20 -4 23 11 20 10 -2 21 -13 24 -26z m76 -84 c4 -7 3 -8 -4 -4 -17
10 -15 1 8 -43 17 -34 17 -40 4 -45 -9 -3 -12 -2 -9 4 4 6 -1 17 -10 26 -9 9
-14 22 -11 30 3 7 0 15 -7 18 -9 3 -8 8 3 15 19 13 17 13 26 -1z m4 -122 c0
-15 -14 -35 -21 -30 -15 9 -10 34 6 34 8 0 15 -2 15 -4z"/>
<path d="M2495 2159 c-16 -5 -39 -6 -52 -3 -13 4 -23 2 -23 -2 0 -12 -45 -32
-90 -40 -19 -4 -38 -12 -42 -18 -6 -8 -11 -7 -17 3 -7 11 -12 10 -28 -6 -11
-11 -25 -17 -33 -15 -7 3 -10 0 -6 -7 4 -6 1 -11 -8 -11 -10 0 -16 -9 -16 -22
0 -12 3 -18 7 -15 3 4 14 0 24 -9 14 -13 16 -21 8 -36 -10 -19 -12 -19 -30 -2
-19 17 -27 40 -10 29 5 -3 12 -1 16 4 3 6 -4 8 -15 6 -16 -3 -28 8 -53 45 -40
62 -54 65 -20 5 63 -114 228 -253 363 -307 89 -35 100 -39 100 -29 0 5 -24 16
-52 26 -135 43 -324 179 -296 213 10 11 13 11 20 -2 5 -9 15 -13 25 -9 11 4
14 3 9 -5 -5 -8 -2 -10 8 -6 12 5 16 -1 16 -22 0 -21 3 -25 9 -15 8 12 11 12
25 0 34 -31 46 -39 56 -39 6 0 8 -5 5 -11 -4 -6 -1 -9 7 -7 7 1 27 -7 45 -20
17 -12 38 -22 46 -22 9 0 23 -7 32 -16 17 -18 45 -12 45 10 0 7 7 16 15 20 17
6 20 51 5 61 -5 3 -10 16 -10 28 0 18 -2 19 -11 7 -8 -11 -9 -7 -4 17 5 24 2
34 -11 41 -9 5 -14 15 -10 21 4 6 12 9 17 6 5 -4 9 9 8 27 -2 38 7 93 16 108
3 5 5 10 3 10 -2 0 -17 4 -33 8 -17 5 -43 5 -60 1z m55 -53 c0 -3 -4 -8 -10
-11 -5 -3 -10 -1 -10 4 0 6 5 11 10 11 6 0 10 -2 10 -4z m40 -250 c0 -3 -4 -8
-10 -11 -5 -3 -10 -1 -10 4 0 6 5 11 10 11 6 0 10 -2 10 -4z"/>
<path d="M650 2154 c0 -10 70 -74 81 -74 14 0 10 23 -9 46 -16 20 -72 42 -72
28z"/>
<path d="M2155 2150 c3 -5 8 -10 11 -10 2 0 4 5 4 10 0 6 -5 10 -11 10 -5 0
-7 -4 -4 -10z"/>
<path d="M512 2128 c-24 -24 -14 -69 24 -104 19 -19 40 -34 45 -34 12 0 12 57
-1 65 -5 3 -10 14 -10 23 0 14 1 14 13 -1 11 -16 13 -16 29 2 16 19 16 21 -9
41 -29 22 -73 26 -91 8z"/>
<path d="M1375 2116 c-16 -13 -30 -29 -30 -34 0 -5 -11 -20 -25 -32 l-25 -22
36 21 c20 11 40 17 45 13 4 -4 3 0 -4 10 -11 14 -8 19 17 37 34 24 54 29 25 5
-18 -14 -18 -15 4 -4 12 6 20 15 17 21 -10 15 -28 10 -60 -15z"/>
<path d="M1898 2123 c-33 -40 -49 -73 -35 -73 24 0 36 -21 25 -45 -15 -34 -76
-48 -167 -39 -42 4 -70 9 -63 11 7 3 -4 17 -27 34 -22 16 -47 43 -56 60 -11
20 -21 29 -31 25 -9 -3 -18 -6 -20 -6 -2 0 -4 -14 -4 -31 0 -34 26 -63 108
-119 34 -23 50 -40 46 -50 -3 -8 -2 -11 2 -8 4 4 25 -8 47 -27 45 -39 94 -53
127 -35 19 10 21 10 16 -7 -3 -10 -17 -56 -31 -103 -31 -103 -92 -230 -139
-290 -19 -24 -33 -47 -30 -51 2 -4 -14 0 -35 8 -39 15 -42 15 -91 -11 -29 -15
-49 -22 -45 -16 15 25 89 52 127 47 31 -4 38 -2 34 9 -3 8 1 14 10 14 9 0 12
5 8 12 -4 6 -3 8 3 5 6 -4 17 1 25 11 23 25 55 105 50 121 -3 8 0 11 7 7 6 -4
14 1 17 11 3 10 10 26 15 36 6 12 5 17 -3 17 -6 0 -4 6 6 13 9 7 18 24 20 38
1 13 6 31 11 39 10 17 14 71 5 65 -16 -10 -86 19 -113 46 -37 37 -44 33 -14
-8 17 -24 32 -33 64 -38 24 -3 43 -10 43 -16 0 -14 -64 -11 -79 4 -11 10 -12
8 -7 -10 4 -12 2 -24 -4 -28 -6 -4 -9 -13 -6 -20 5 -15 -19 -71 -35 -80 -18
-12 -8 29 13 52 12 13 19 23 15 23 -3 0 -20 -15 -37 -32 l-32 -33 27 55 c31
63 40 75 32 42 -3 -12 -1 -20 3 -17 16 10 6 78 -15 101 -16 17 -25 20 -39 12
-16 -9 -16 -8 -7 10 7 14 8 23 1 27 -5 3 -10 -1 -10 -9 0 -9 -3 -16 -8 -16 -4
0 -6 18 -4 40 3 32 1 40 -13 40 -9 0 -13 -4 -10 -10 3 -6 -1 -7 -10 -3 -11 4
-13 8 -5 13 8 5 7 10 -4 19 -12 10 -21 9 -46 -4 -17 -9 -34 -23 -37 -30 -3 -8
-9 -12 -14 -9 -5 3 -9 0 -9 -5 0 -6 -5 -11 -12 -11 -6 0 -4 8 6 19 10 11 15
24 11 30 -4 7 0 8 11 4 11 -4 15 -2 11 4 -7 10 19 28 36 25 4 -1 7 0 7 3 0 7
-70 35 -90 35 -19 0 -57 -76 -65 -132 -5 -28 -4 -30 4 -10 11 24 23 30 19 10
-3 -15 50 -12 69 4 9 8 13 7 13 -3 1 -8 7 0 15 18 13 30 51 60 62 49 3 -3 -6
-11 -20 -17 -18 -8 -27 -21 -29 -43 -2 -20 -8 -30 -17 -28 -8 2 -37 -2 -65 -8
-28 -7 -64 -14 -81 -17 -16 -3 -32 -7 -34 -9 -9 -9 58 -3 114 10 57 14 81 13
60 -2 -13 -9 -75 -89 -75 -96 0 -9 -71 -106 -77 -106 -7 0 43 85 79 134 26 36
27 41 12 49 -9 5 -19 6 -23 1 -3 -5 -17 -9 -31 -9 -21 0 -26 -6 -31 -35 -6
-33 -6 -34 -8 -5 -2 48 -21 15 -31 -56 -6 -35 -12 -77 -15 -94 -4 -28 -4 -29
10 -11 8 11 15 32 15 48 0 15 5 28 11 28 6 0 8 -7 5 -16 -3 -9 -6 -24 -6 -35
0 -10 -13 -33 -30 -51 l-29 -33 6 36 c3 20 1 39 -3 42 -5 3 -9 -15 -8 -40 0
-30 -6 -52 -17 -66 -10 -12 -18 -17 -19 -11 0 6 7 17 15 24 12 10 13 15 4 21
-9 5 -10 11 -2 21 6 7 9 30 7 51 -3 34 -2 36 12 22 21 -21 21 -21 21 27 0 27
-7 48 -19 60 -10 10 -18 17 -19 16 -8 -26 -5 -38 9 -39 11 0 12 -2 5 -6 -7 -2
-13 -12 -13 -21 0 -14 -2 -14 -9 -3 -7 11 -10 11 -15 0 -4 -10 -7 -11 -12 -2
-3 8 -13 9 -27 4 -12 -4 -28 -6 -34 -4 -7 3 -13 0 -13 -6 0 -6 -13 -11 -30
-11 -16 0 -30 -5 -30 -10 0 -9 27 -7 68 6 16 5 42 -6 42 -18 0 -5 -4 -6 -10
-3 -15 9 -88 -13 -107 -33 -40 -40 -130 -76 -120 -48 3 6 9 10 15 9 6 -2 23 8
38 22 15 14 30 22 34 20 5 -3 6 4 3 15 -4 16 -2 19 11 14 9 -3 16 -1 16 5 0 6
-8 11 -17 11 -9 0 -14 3 -10 6 12 12 108 53 102 44 -9 -15 12 -12 45 5 17 9
30 22 30 31 0 8 10 19 23 25 21 9 21 9 -3 3 -14 -3 -33 -6 -44 -5 -18 0 -18
-1 0 -13 17 -13 17 -14 -4 -25 -11 -6 -24 -11 -29 -11 -4 1 3 7 16 14 22 12
22 13 4 18 -25 7 -66 -9 -58 -22 3 -5 1 -10 -4 -10 -15 0 -14 6 5 35 9 14 23
25 31 25 8 0 12 4 9 9 -3 5 -34 8 -68 8 -35 1 -85 4 -113 7 -36 6 -46 5 -35
-3 12 -9 12 -11 1 -11 -8 0 -20 8 -27 18 -8 10 -13 12 -14 5 0 -18 -20 -16
-20 1 0 8 -16 15 -41 19 -22 3 -43 8 -46 11 -14 14 5 14 57 0 74 -19 245 -31
355 -24 78 5 65 6 -95 11 -181 5 -256 18 -195 33 16 4 33 2 41 -5 9 -8 35 -10
74 -6 34 3 63 1 66 -5 8 -12 118 -3 169 15 42 15 54 30 85 121 27 74 8 77 -86
11 -19 -14 -21 -14 -19 6 1 12 8 27 16 33 9 6 18 19 22 28 4 13 -2 18 -34 23
-45 8 -136 -2 -145 -16 -3 -5 -13 -9 -22 -9 -21 0 -128 -51 -161 -76 -13 -11
-44 -37 -68 -58 l-44 -40 28 -12 c28 -13 28 -13 -8 -8 -36 6 -38 4 -76 -53
-65 -96 -73 -148 -51 -317 l11 -89 -27 -24 c-34 -29 -83 -30 -129 -3 l-34 20
-26 -20 c-14 -11 -28 -28 -31 -38 -11 -34 -71 -63 -130 -65 -31 -1 -56 -5 -56
-9 0 -4 -13 -8 -28 -8 -33 0 -52 -31 -52 -85 0 -38 10 -44 30 -20 9 11 22 14
42 10 22 -5 39 -1 66 17 20 13 68 32 105 42 69 19 99 18 222 -3 87 -14 273
-21 327 -11 70 14 250 92 238 104 -7 7 -25 6 -55 -2 -25 -7 -64 -11 -88 -11
-31 2 -34 3 -12 5 17 2 53 9 80 15 44 10 60 8 115 -9 97 -31 133 -44 155 -55
13 -6 20 -6 23 1 1 5 12 8 22 5 11 -3 18 -9 15 -13 -6 -9 45 -24 53 -15 3 3
-4 14 -15 25 -12 10 -22 17 -24 15 -2 -2 -24 1 -49 6 -25 6 -52 10 -60 10 -8
0 -24 4 -35 9 -11 5 -32 11 -46 14 -40 9 -82 52 -71 73 5 10 8 28 7 40 -1 12
2 20 7 17 4 -3 8 1 8 10 0 8 3 23 7 33 4 13 -4 9 -26 -12 -36 -33 -82 -93 -63
-81 8 5 10 2 6 -8 -3 -8 -12 -12 -19 -10 -7 3 -16 1 -20 -5 -3 -6 -12 -11 -20
-11 -15 0 -29 31 -18 39 4 3 25 28 47 54 34 43 37 51 27 73 -15 33 -15 32 13
30 23 -1 24 -2 8 -20 -9 -11 -12 -16 -6 -13 7 4 14 0 18 -8 3 -9 -15 -36 -46
-70 -28 -31 -48 -58 -45 -61 9 -9 170 174 247 281 113 157 130 176 150 165 24
-13 30 -13 30 0 0 6 -9 10 -20 10 -11 0 -20 4 -20 10 0 7 54 4 67 -4 2 -2
-130 -213 -161 -256 -16 -22 -27 -43 -24 -46 7 -6 98 125 156 224 24 39 47 72
52 72 13 0 14 2 -24 -76 -42 -84 -149 -239 -165 -239 -12 0 -15 -9 -9 -27 2
-6 14 3 27 20 12 18 27 29 33 26 6 -4 17 1 25 11 7 11 13 14 13 8 0 -11 -30
-41 -42 -42 -5 -1 -8 -3 -8 -6 0 -3 0 -11 0 -17 1 -7 16 4 34 25 21 24 37 34
41 27 7 -12 -23 -65 -32 -56 -8 8 -43 -24 -43 -38 1 -6 10 0 20 13 11 13 20
19 20 14 0 -16 -36 -44 -45 -36 -4 5 -5 2 -1 -5 5 -8 -8 -31 -33 -61 -23 -27
-41 -52 -41 -55 0 -18 20 -1 50 42 58 81 113 142 128 142 8 0 12 6 8 15 -3 10
3 17 19 21 14 3 22 11 18 17 -3 5 -1 7 4 4 6 -4 13 2 16 13 5 21 27 28 27 9 0
-5 -4 -7 -10 -4 -5 3 -10 2 -10 -4 0 -5 6 -12 13 -14 7 -4 3 -8 -10 -12 -13
-4 -23 -12 -23 -17 0 -6 -7 -7 -16 -4 -12 5 -15 2 -10 -10 3 -8 6 -19 6 -22 0
-4 5 0 10 8 6 9 10 10 10 3 0 -18 -21 -27 -30 -13 -5 9 -9 9 -14 1 -4 -6 -4
-16 0 -23 5 -7 2 -9 -7 -6 -8 3 -20 -1 -27 -8 -7 -8 -10 -14 -6 -14 3 0 1 -7
-6 -15 -6 -8 -9 -19 -5 -25 4 -6 -13 -19 -39 -31 -25 -11 -46 -26 -46 -33 0
-14 30 -26 67 -26 13 0 27 -10 34 -22 7 -13 21 -30 32 -38 11 -8 28 -23 38
-32 11 -10 22 -18 26 -18 19 1 48 58 49 98 1 30 12 59 34 93 57 89 109 201
146 319 40 127 65 186 94 223 32 41 39 70 29 118 -16 71 -51 97 -81 62z m-588
-163 c0 -5 -2 -10 -4 -10 -3 0 -8 5 -11 10 -3 6 -1 10 4 10 6 0 11 -4 11 -10z
m335 -161 c-4 -11 -28 -57 -55 -102 -27 -45 -44 -84 -40 -87 5 -3 5 -12 0 -20
-6 -8 -10 -11 -10 -6 0 5 -6 3 -14 -3 -28 -23 -27 19 2 62 16 23 46 72 67 110
38 65 63 89 50 46z m39 -11 c-8 -27 -74 -148 -80 -148 -3 0 0 9 6 21 7 11 9
23 7 26 -3 2 -11 -5 -17 -17 -6 -12 -14 -20 -16 -17 -3 3 13 35 35 71 23 37
41 71 41 76 0 6 7 10 16 10 11 0 14 -6 8 -22z m-608 -64 c15 6 18 -3 6 -20 -9
-13 -52 -25 -52 -14 0 4 8 11 18 15 16 6 16 7 0 16 -10 6 -18 15 -18 20 0 6 7
3 16 -6 9 -9 23 -14 30 -11z m261 -16 c-3 -8 -6 -5 -6 6 -1 11 2 17 5 13 3 -3
4 -12 1 -19z m450 -10 c-3 -8 -6 -5 -6 6 -1 11 2 17 5 13 3 -3 4 -12 1 -19z
m-37 -25 c0 -5 -7 -17 -16 -28 -14 -19 -14 -19 -10 5 2 14 5 26 5 28 2 6 21 1
21 -5z m-516 -27 c-3 -9 -10 -13 -15 -10 -5 3 -3 11 4 19 15 16 19 13 11 -9z
m423 -10 c-1 -6 10 -10 26 -8 15 1 27 -2 27 -8 0 -5 -21 -10 -46 -10 -33 0
-51 -5 -61 -17 -13 -16 -13 -15 -2 7 17 36 27 47 43 47 8 0 14 -5 13 -11z
m-449 -15 c2 -6 0 -11 -5 -10 -20 3 -34 -2 -28 -10 8 -13 -32 -34 -48 -25 -8
5 -7 2 2 -9 7 -10 9 -17 3 -17 -6 0 -12 6 -15 13 -3 9 -12 8 -38 -5 -28 -14
-30 -17 -12 -17 26 -1 42 -39 22 -52 -7 -4 -10 -11 -6 -15 10 -10 -55 -43
-148 -75 -89 -31 -107 -25 -73 23 15 21 25 27 40 22 14 -4 18 -2 14 5 -4 6 -2
10 5 9 6 -2 14 3 17 11 3 10 -1 13 -17 8 -12 -3 -19 -1 -15 5 3 5 17 7 30 4
13 -4 24 -2 24 3 0 5 18 18 40 29 42 20 45 37 4 22 -38 -15 -28 -3 16 20 21
11 52 20 67 20 30 1 63 20 63 38 0 21 51 25 58 3z m373 0 c4 7 10 11 13 8 9
-8 -44 -80 -55 -74 -5 4 -9 11 -9 16 0 6 4 8 9 5 12 -8 32 18 28 35 -2 8 -2
10 1 5 2 -4 8 -2 13 5z m-456 -11 c-3 -5 -12 -10 -18 -10 -7 0 -6 4 3 10 19
12 23 12 15 0z m361 -48 c-18 -16 -18 -16 -6 6 6 13 14 21 18 18 3 -4 -2 -14
-12 -24z m216 -10 c-14 -14 -18 -15 -20 -3 -4 15 17 33 30 25 4 -3 0 -13 -10
-22z m-36 -19 c-10 -10 -19 5 -10 18 6 11 8 11 12 0 2 -7 1 -15 -2 -18z m67 2
c-3 -9 -8 -14 -10 -11 -3 3 -2 9 2 15 9 16 15 13 8 -4z m-567 -22 c-10 -10
-19 5 -10 18 6 11 8 11 12 0 2 -7 1 -15 -2 -18z m-26 3 c0 -2 -7 -9 -15 -16
-13 -11 -14 -10 -9 4 5 14 24 23 24 12z m7 -41 c0 -8 -2 -13 -5 -10 -3 2 -14
0 -24 -6 -16 -9 -19 -8 -16 3 3 7 10 13 16 13 5 0 14 3 18 8 10 10 11 9 11 -8z
m490 -21 c-3 -3 -12 -4 -19 -1 -8 3 -5 6 6 6 11 1 17 -2 13 -5z m-33 -26 c-3
-4 -12 -8 -20 -8 -8 0 -13 4 -10 8 3 5 12 9 20 9 8 0 13 -4 10 -9z m-1060 -54
c25 -10 19 -22 -9 -16 -16 3 -25 0 -25 -9 0 -7 -2 -10 -5 -7 -7 7 5 38 15 38
5 0 15 -3 24 -6z m1106 -39 c11 -30 -1 -69 -27 -83 -13 -8 -22 -4 -40 16 -13
15 -23 30 -23 35 0 4 -12 12 -27 18 l-28 11 30 13 c17 7 47 14 68 14 31 1 39
-3 47 -24z m-1106 6 c3 -5 -3 -11 -15 -14 -16 -4 -18 -3 -8 9 13 16 16 17 23
5z m326 -71 c0 -5 -4 -10 -10 -10 -5 0 -10 5 -10 10 0 6 5 10 10 10 6 0 10 -4
10 -10z"/>
<path d="M1636 1731 c-23 -43 -19 -52 5 -13 12 18 19 35 16 38 -3 3 -13 -8
-21 -25z"/>
<path d="M1065 1510 c-3 -6 -12 -10 -18 -9 -30 4 -47 -3 -80 -33 -20 -18 -44
-39 -54 -46 -17 -12 -17 -13 2 -6 11 3 37 10 57 14 40 8 93 38 84 47 -3 3 2
12 12 19 9 7 14 15 10 19 -3 3 -9 1 -13 -5z m-29 -19 c-4 -5 0 -11 6 -14 7 -2
-1 -11 -19 -20 -44 -23 -55 -21 -18 3 17 11 25 20 20 20 -6 0 -16 -5 -23 -12
-6 -6 -14 -9 -18 -6 -3 4 7 13 23 22 33 18 36 19 29 7z"/>
<path d="M870 1400 c-9 -6 -10 -10 -3 -10 6 0 15 5 18 10 8 12 4 12 -15 0z"/>
<path d="M1592 1339 c-32 -12 -18 -29 23 -29 26 0 33 4 29 14 -8 20 -25 25
-52 15z"/>
<path d="M1600 1290 c0 -5 7 -10 16 -10 8 0 12 5 9 10 -3 6 -10 10 -16 10 -5
0 -9 -4 -9 -10z"/>
<path d="M2120 2130 c-9 -6 -10 -10 -3 -10 6 0 15 5 18 10 8 12 4 12 -15 0z"/>
<path d="M2600 2070 c-15 -46 -8 -147 14 -188 15 -26 15 -25 17 43 0 39 2 90
3 115 4 79 -13 94 -34 30z"/>
<path d="M1375 2090 c-9 -14 28 -21 41 -8 11 11 9 13 -11 14 -14 1 -27 -2 -30
-6z"/>
<path d="M2040 2080 c-9 -6 -10 -10 -3 -10 6 0 15 5 18 10 8 12 4 12 -15 0z"/>
<path d="M1593 2066 c11 -33 187 -90 202 -65 4 5 16 7 27 3 14 -4 18 -2 14 5
-4 7 1 11 13 11 12 0 21 5 21 11 0 8 -11 9 -32 4 -73 -17 -141 -11 -196 16
-29 15 -51 21 -49 15z"/>
<path d="M625 2040 c-17 -33 -20 -70 -5 -70 6 0 10 6 10 14 0 7 11 30 25 50
23 34 23 36 5 36 -11 0 -26 -12 -35 -30z"/>
<path d="M2043 2044 c-29 -22 -32 -28 -22 -47 7 -12 13 -23 14 -25 1 -1 17 11
34 27 24 22 31 36 26 51 -8 26 -13 25 -52 -6z"/>
<path d="M667 2032 c-19 -21 -22 -63 -6 -79 8 -8 18 0 35 34 13 24 22 49 19
54 -10 14 -31 11 -48 -9z"/>
<path d="M2155 2040 c3 -5 8 -10 11 -10 2 0 4 5 4 10 0 6 -5 10 -11 10 -5 0
-7 -4 -4 -10z"/>
<path d="M1384 1993 c-40 -92 -44 -105 -44 -125 0 -37 17 -8 48 80 29 82 26
115 -4 45z"/>
<path d="M726 1993 c-36 -38 -33 -67 8 -92 18 -12 43 -21 56 -21 19 0 21 4 16
28 -4 17 -3 22 2 14 7 -11 17 -7 47 19 l37 33 -48 17 c-95 32 -91 32 -118 2z"/>
<path d="M2945 1993 c4 -10 10 -26 12 -35 3 -10 9 -18 14 -18 12 0 11 6 -6 40
-17 32 -32 41 -20 13z"/>
<path d="M2115 1990 c-3 -5 -3 -15 1 -21 4 -8 0 -8 -15 0 -17 10 -21 9 -21 -3
0 -9 9 -20 21 -26 11 -7 18 -14 15 -17 -3 -3 -12 0 -20 6 -11 9 -16 9 -21 0
-4 -6 -1 -16 6 -21 11 -7 11 -11 2 -15 -10 -3 -9 -11 2 -33 8 -16 15 -37 15
-47 0 -10 10 -29 21 -43 l21 -25 -5 30 c-5 27 -4 28 8 11 8 -10 11 -25 8 -34
-4 -10 -2 -14 2 -10 5 5 16 -5 26 -22 13 -21 23 -28 35 -23 10 4 15 2 11 -3
-3 -6 4 -16 15 -23 18 -11 20 -11 15 3 -7 19 1 20 38 6 14 -5 24 -14 21 -18
-2 -4 14 -8 37 -7 32 0 44 -5 52 -21 6 -12 19 -20 32 -19 12 1 21 -3 20 -8 -2
-11 29 -18 49 -10 8 3 14 12 14 20 0 8 5 11 10 8 13 -8 13 65 0 85 -5 8 -10
11 -10 6 0 -5 -8 -2 -17 5 -9 8 -14 9 -10 3 4 -7 1 -14 -7 -17 -9 -4 -12 0 -9
11 3 12 -8 22 -39 35 -24 9 -48 17 -54 17 -7 0 -17 7 -25 16 -9 11 -22 14 -41
10 -15 -3 -27 -2 -26 2 3 16 -14 40 -26 36 -7 -3 -21 5 -32 17 -18 21 -18 22
-1 16 10 -4 21 -7 23 -7 3 0 2 -5 -2 -12 -5 -7 -3 -8 6 -3 10 6 -1 22 -39 58
-42 40 -55 47 -62 36 -7 -10 -9 -8 -7 11 2 15 -2 24 -9 23 -7 -2 -10 4 -7 12
7 17 -11 21 -21 5z m115 -106 c0 -2 -9 0 -20 6 -11 6 -20 13 -20 16 0 2 9 0
20 -6 11 -6 20 -13 20 -16z m-100 -43 c0 -6 -4 -13 -10 -16 -5 -3 -10 1 -10 9
0 9 5 16 10 16 6 0 10 -4 10 -9z m90 -6 c0 -8 -4 -15 -10 -15 -5 0 -10 7 -10
15 0 8 5 15 10 15 6 0 10 -7 10 -15z m30 -56 c0 -15 -18 -19 -23 -6 -3 8 1 14
9 14 8 0 14 -4 14 -8z m205 -139 c-3 -5 -12 -10 -18 -10 -7 0 -6 4 3 10 19 12
23 12 15 0z"/>
<path d="M2036 1900 c19 -50 34 -105 34 -122 0 -21 3 -29 10 -22 12 12 -9 101
-43 177 -14 31 -28 57 -30 57 -3 0 10 -41 29 -90z"/>
<path d="M2692 1973 c-6 -10 -13 -40 -17 -68 -5 -39 -4 -47 5 -35 9 12 10 10
6 -12 -5 -20 -2 -28 7 -28 18 0 67 23 67 32 0 4 8 5 18 2 14 -5 15 -4 2 5 -8
6 -22 8 -32 5 -9 -2 -19 0 -23 6 -3 5 -1 10 5 10 6 0 8 5 5 10 -4 6 -10 8 -15
5 -9 -6 -23 25 -15 33 3 3 5 0 5 -6 0 -7 4 -12 10 -12 13 0 8 49 -7 61 -8 7
-14 5 -21 -8z"/>
<path d="M1991 1918 c-1 -63 -21 -74 -21 -11 0 35 -3 44 -10 33 -5 -8 -10 -25
-10 -36 0 -12 -7 -24 -15 -28 -23 -8 -18 -28 5 -21 24 8 26 -1 5 -21 -8 -9
-15 -12 -15 -8 0 4 -6 -1 -14 -12 -9 -11 -12 -30 -9 -46 4 -21 2 -28 -9 -28
-20 0 -78 -145 -74 -187 1 -18 -2 -34 -6 -35 -5 -2 -10 -14 -13 -27 -5 -28
-12 -37 -22 -27 -4 4 -3 10 2 14 6 4 11 12 11 17 1 6 4 21 8 35 3 14 -6 0 -21
-30 -14 -30 -25 -59 -24 -64 1 -5 -6 -18 -16 -30 -18 -20 -18 -20 2 -6 19 14
19 14 6 -3 -8 -9 -16 -15 -19 -12 -3 3 -14 -2 -24 -12 -19 -17 -25 -73 -7 -73
5 0 7 -5 3 -11 -5 -8 17 -9 77 -5 114 10 258 36 266 49 4 6 0 8 -10 4 -9 -3
-40 -9 -69 -12 -48 -4 -47 -3 16 10 38 8 74 19 79 24 6 6 10 84 10 183 0 190
-14 281 -57 371 l-24 52 -1 -47z m-51 -112 c0 -2 -7 -7 -16 -10 -8 -3 -12 -2
-9 4 6 10 25 14 25 6z m-42 -493 c-10 -2 -26 -2 -35 0 -10 3 -2 5 17 5 19 0
27 -2 18 -5z m-80 -10 c-15 -2 -42 -2 -60 0 -18 2 -6 4 27 4 33 0 48 -2 33 -4z"/>
<path d="M2818 1944 c-3 -5 3 -18 13 -28 22 -22 26 -9 6 19 -8 10 -16 14 -19
9z"/>
<path d="M2986 1885 c-3 -9 -18 -15 -39 -15 -33 0 -34 -1 -32 -42 1 -24 5 -63
10 -87 6 -35 5 -43 -6 -39 -14 5 -15 9 -18 50 -1 17 -4 19 -13 10 -16 -16 -31
-15 -22 1 5 9 4 9 -5 1 -7 -7 -11 -22 -9 -34 2 -17 14 -26 48 -36 25 -8 51
-12 58 -9 7 2 16 5 20 5 4 1 15 9 25 17 16 15 16 17 -5 27 -12 6 -23 18 -25
26 -3 10 -1 9 7 -2 30 -48 60 0 36 56 -18 43 -13 47 9 9 15 -27 15 -27 9 -3
-18 67 -37 93 -48 65z m-17 -82 l-1 -28 -10 33 c-6 17 -15 32 -20 32 -5 0 -6
5 -3 10 11 17 35 -16 34 -47z m41 -24 c0 -10 -4 -19 -9 -19 -12 0 -23 29 -15
41 8 14 24 0 24 -22z m-50 -29 c0 -13 -1 -13 -10 0 -5 8 -10 22 -10 30 0 13 1
13 10 0 5 -8 10 -22 10 -30z"/>
<path d="M734 1818 c-36 -41 -54 -73 -53 -95 0 -10 8 2 18 26 10 24 24 49 32
55 17 13 43 46 37 46 -2 0 -17 -15 -34 -32z"/>
<path d="M2772 1842 c-8 -6 -2 -13 17 -25 27 -16 29 -16 35 0 4 10 4 14 0 10
-4 -4 -15 -1 -23 7 -9 8 -22 12 -29 8z"/>
<path d="M1482 1777 c-12 -13 -22 -31 -22 -40 0 -9 -6 -17 -12 -18 -17 0 -81
-97 -73 -109 3 -5 -8 -16 -25 -25 -26 -13 -30 -21 -31 -58 -1 -23 -3 -52 -4
-63 -2 -23 -35 -73 -47 -74 -5 0 -8 -5 -8 -11 0 -6 7 -9 15 -5 8 3 15 1 15 -4
0 -11 53 -40 72 -39 7 0 -1 7 -19 15 -48 21 -58 46 -28 74 18 17 23 30 19 47
-4 13 -2 23 5 23 6 0 8 -8 5 -17 -3 -10 5 -5 20 12 31 36 35 56 6 30 -33 -30
-23 -6 19 44 49 59 62 85 55 108 -4 13 -3 15 4 4 7 -10 15 -6 35 20 24 33 57
92 57 104 0 14 -39 2 -58 -18z"/>
<path d="M2490 1790 c0 -5 5 -10 11 -10 5 0 7 5 4 10 -3 6 -8 10 -11 10 -2 0
-4 -4 -4 -10z"/>
<path d="M1273 1768 c1 -16 5 -28 9 -28 10 0 9 9 -2 35 -8 17 -8 16 -7 -7z"/>
<path d="M2775 1770 c-3 -6 1 -7 9 -4 18 7 21 14 7 14 -6 0 -13 -4 -16 -10z"/>
<path d="M2086 1753 c-10 -11 -7 -91 5 -98 7 -5 8 8 3 41 l-7 49 24 -20 c42
-36 122 -89 118 -78 -6 16 -136 113 -143 106z"/>
<path d="M666 1685 c-3 -9 -6 -24 -5 -33 0 -9 5 -4 10 12 9 32 6 48 -5 21z"/>
<path d="M2608 1682 c-21 -10 -38 -21 -38 -25 0 -10 34 0 80 24 45 23 11 24
-42 1z"/>
<path d="M2120 1675 c0 -9 7 -32 15 -52 18 -42 18 -46 5 -38 -5 3 -10 1 -10
-4 0 -6 5 -11 10 -11 15 0 12 -21 -4 -39 -16 -18 -24 -131 -12 -169 4 -12 17
-27 28 -33 26 -14 32 -5 55 85 14 55 25 75 56 102 21 19 41 32 46 30 4 -3 23
9 42 26 19 16 26 25 16 18 -9 -7 -20 -10 -23 -8 -3 3 9 16 26 28 17 12 29 25
25 28 -7 7 -66 -49 -60 -57 2 -4 -5 -7 -16 -7 -17 0 -16 3 8 28 15 15 22 28
16 28 -13 0 -53 -48 -53 -63 0 -12 -50 -67 -60 -67 -3 0 -7 24 -8 52 -3 69
-11 96 -23 77 -7 -11 -9 -11 -9 -1 0 7 -4 11 -9 8 -5 -3 -12 1 -15 10 -3 8 -2
12 4 9 6 -3 10 -4 10 -1 0 3 -13 12 -30 21 -27 14 -30 14 -30 0z m24 -290 c-4
-8 -10 -12 -15 -9 -11 6 -2 24 11 24 5 0 7 -7 4 -15z"/>
<path d="M2260 1625 c33 -19 50 -18 26 0 -11 8 -27 15 -35 15 -10 -1 -7 -6 9
-15z"/>
<path d="M659 1541 c-4 -46 -11 -67 -24 -77 -27 -20 -59 -17 -80 6 -18 20 -72
29 -60 10 3 -5 0 -10 -7 -10 -7 0 -35 -11 -63 -25 -59 -29 -92 -31 -124 -9
-17 12 -26 13 -34 5 -16 -16 -37 -13 -37 5 0 14 -3 14 -16 3 -19 -16 -44 -63
-44 -84 0 -13 6 -15 30 -10 21 5 35 2 46 -9 20 -20 33 -20 123 4 41 11 81 20
89 20 7 0 21 9 30 20 19 23 82 45 82 29 0 -6 10 -8 23 -4 16 5 18 4 8 -3 -11
-8 -5 -13 25 -21 59 -16 60 -13 47 129 l-9 85 -5 -64z"/>
<path d="M2090 1491 c0 -63 -5 -122 -11 -134 -10 -20 -10 -21 4 -7 13 12 17
39 18 128 0 62 -2 116 -5 119 -3 4 -6 -44 -6 -106z"/>
<path d="M2405 1570 c28 -12 155 -12 155 0 0 6 -35 10 -87 9 -59 0 -81 -3 -68
-9z"/>
<path d="M1297 1543 c-4 -3 -7 -18 -6 -32 1 -26 1 -25 10 3 9 31 7 41 -4 29z"/>
<path d="M2410 1527 c0 -35 -26 -42 -34 -11 -8 30 -32 26 -29 -5 2 -18 -1 -20
-22 -15 -17 4 -27 1 -31 -10 -4 -11 -14 -14 -34 -9 -24 4 -29 2 -28 -13 0 -11
-4 -39 -10 -63 -13 -53 -1 -91 28 -91 23 0 64 73 75 133 4 22 13 37 21 37 16
0 18 -11 5 -25 -4 -6 -16 -33 -26 -61 -14 -40 -15 -55 -6 -70 11 -18 12 -18 6
2 -4 16 1 26 20 38 19 13 25 13 25 3 0 -7 -5 -18 -11 -24 -7 -7 -7 -13 0 -17
16 -10 41 37 62 116 10 39 21 73 24 76 3 3 5 -28 5 -69 0 -49 -3 -69 -10 -59
-7 11 -11 9 -19 -13 -15 -40 -14 -44 15 -51 31 -8 25 -14 61 54 37 68 47 108
33 125 -6 7 -9 19 -8 26 2 10 -12 15 -54 17 -56 3 -58 2 -58 -21z"/>
<path d="M1421 1481 c-12 -17 -20 -35 -17 -39 8 -13 -18 -45 -38 -48 -23 -3
-20 7 14 46 33 40 36 47 16 47 -8 0 -14 -3 -13 -6 3 -11 -44 -81 -52 -77 -4 3
-7 -4 -8 -14 -2 -28 18 -36 35 -14 13 18 14 18 7 -3 -4 -14 -2 -23 5 -23 6 0
9 3 6 8 -2 4 15 31 40 61 47 57 48 59 35 79 -6 11 -14 6 -30 -17z m19 -15 c0
-2 -8 -10 -17 -17 -16 -13 -17 -12 -4 4 13 16 21 21 21 13z"/>
<path d="M116 1453 c-54 -56 -46 -113 14 -113 23 0 27 4 28 32 0 17 10 44 21
59 25 34 26 45 5 53 -26 10 -30 8 -68 -31z"/>
<path d="M1291 1473 c0 -6 -4 -20 -7 -30 -5 -14 -4 -15 5 -7 7 7 11 20 8 30
-3 11 -5 14 -6 7z"/>
<path d="M2601 1467 c-33 -10 -47 -20 -62 -47 -10 -19 -23 -45 -30 -58 -15
-28 -7 -36 26 -28 21 5 25 11 20 27 -7 20 -6 20 24 5 37 -20 90 -20 115 -1 11
8 27 15 35 15 13 0 14 -2 2 -9 -15 -10 -7 -13 56 -26 18 -4 42 -18 52 -32 15
-18 26 -23 41 -18 14 4 20 2 20 -9 0 -17 50 -30 80 -21 20 6 29 35 10 35 -5 0
-19 18 -30 40 -11 22 -27 40 -36 40 -27 0 -135 40 -176 66 -49 31 -89 37 -147
21z"/>
<path d="M1480 1410 c-9 -6 -10 -10 -3 -10 6 0 15 5 18 10 8 12 4 12 -15 0z"/>
<path d="M2090 1330 c0 -14 -42 -50 -52 -44 -4 3 -5 10 -2 16 5 8 1 9 -12 4
-10 -4 -43 -10 -72 -13 -30 -3 -56 -12 -59 -19 -4 -10 -26 -12 -93 -8 -91 5
-130 -4 -130 -30 0 -8 12 -17 28 -20 15 -4 35 -9 44 -12 14 -4 16 -1 11 12 -6
16 -1 15 33 -6 103 -62 173 -81 78 -21 -31 19 -42 31 -31 31 11 0 44 -18 76
-40 50 -35 64 -40 111 -40 56 0 289 35 298 45 3 3 0 11 -6 17 -23 23 -11 28
17 7 25 -18 47 -22 143 -26 122 -5 182 -22 172 -47 -8 -20 -2 -20 43 -1 44 19
43 19 43 -1 0 -14 8 -16 46 -11 69 7 73 19 21 70 -44 43 -47 44 -116 46 -66 2
-124 16 -226 55 -63 24 -92 21 -103 -11 -10 -26 -11 -27 -17 -7 -6 19 -16 22
-96 26 -58 4 -97 11 -113 22 -29 18 -36 20 -36 6z m10 -58 c0 -11 -12 -24 -26
-31 -22 -10 -31 -9 -51 4 -29 19 -24 32 6 15 22 -11 61 1 61 20 0 6 2 10 5 10
3 0 5 -8 5 -18z m403 -69 c-7 -2 -19 -2 -25 0 -7 3 -2 5 12 5 14 0 19 -2 13
-5z"/>
<path d="M1430 1309 c0 -5 11 -9 25 -9 14 0 25 2 25 4 0 2 -11 6 -25 8 -14 3
-25 1 -25 -3z"/>
<path d="M1255 1280 c27 -12 43 -12 25 0 -8 5 -22 9 -30 9 -10 0 -8 -3 5 -9z"/>
<path d="M169 1271 c33 -9 38 -29 7 -26 -14 2 -30 6 -37 11 -7 4 -9 3 -5 -4 3
-5 2 -12 -3 -14 -4 -1 -12 -29 -15 -61 -8 -64 4 -78 53 -61 23 9 27 16 34 79
8 73 2 86 -38 84 -17 -1 -16 -2 4 -8z"/>
<path d="M2895 1242 c-13 -34 -4 -50 38 -65 59 -23 101 -18 105 12 8 57 -2 66
-72 66 -46 0 -67 -4 -71 -13z"/>
<path d="M2786 1110 c-100 -17 -81 -90 24 -90 65 0 76 10 64 57 -10 42 -17 45
-88 33z"/>
</g>
</svg>
